<?xml version="1.0" encoding="UTF-8" standalone="no"?>
<!-- Created with Inkscape (http://www.inkscape.org/) -->

<svg
   xmlns:osb="http://www.openswatchbook.org/uri/2009/osb"
   xmlns:dc="http://purl.org/dc/elements/1.1/"
   xmlns:cc="http://creativecommons.org/ns#"
   xmlns:rdf="http://www.w3.org/1999/02/22-rdf-syntax-ns#"
   xmlns:svg="http://www.w3.org/2000/svg"
   xmlns="http://www.w3.org/2000/svg"
   xmlns:sodipodi="http://sodipodi.sourceforge.net/DTD/sodipodi-0.dtd"
   xmlns:inkscape="http://www.inkscape.org/namespaces/inkscape"
   width="52.41552mm"
   height="52.41552mm"
   viewBox="0 0 52.41552 52.41552"
   version="1.1"
   id="svg8"
   inkscape:version="0.92.3 (2405546, 2018-03-11)"
   sodipodi:docname="favicon-svg.svg">
  <defs
     id="defs2">
    <marker
       inkscape:stockid="Arrow1Lend"
       orient="auto"
       refY="0"
       refX="0"
       id="Arrow1Lend"
       style="overflow:visible"
       inkscape:isstock="true">
      <path
         id="path4535"
         d="M 0,0 5,-5 -12.5,0 5,5 Z"
         style="fill:#000000;fill-opacity:1;fill-rule:evenodd;stroke:#000000;stroke-width:1.00000003pt;stroke-opacity:1"
         transform="matrix(-0.8,0,0,-0.8,-10,0)"
         inkscape:connector-curvature="0" />
    </marker>
    <linearGradient
       id="linearGradient4526"
       osb:paint="solid">
      <stop
         style="stop-color:#000000;stop-opacity:1;"
         offset="0"
         id="stop4524" />
    </linearGradient>
  </defs>
  <sodipodi:namedview
     id="base"
     pagecolor="#ffffff"
     bordercolor="#666666"
     borderopacity="1.0"
     inkscape:pageopacity="0.0"
     inkscape:pageshadow="2"
     inkscape:zoom="1.4"
     inkscape:cx="300.56853"
     inkscape:cy="-19.542117"
     inkscape:document-units="mm"
     inkscape:current-layer="layer1"
     showgrid="false"
     inkscape:window-width="1920"
     inkscape:window-height="960"
     inkscape:window-x="0"
     inkscape:window-y="27"
     inkscape:window-maximized="1"
     fit-margin-top="0"
     fit-margin-left="0"
     fit-margin-right="0"
     fit-margin-bottom="0" />
  <metadata
     id="metadata5">
    <rdf:RDF>
      <cc:Work
         rdf:about="">
        <dc:format>image/svg+xml</dc:format>
        <dc:type
           rdf:resource="http://purl.org/dc/dcmitype/StillImage" />
        <dc:title></dc:title>
      </cc:Work>
    </rdf:RDF>
  </metadata>
  <g
     inkscape:label="Layer 1"
     inkscape:groupmode="layer"
     id="layer1"
     transform="translate(-45.605242,-47.445764)">
    <g
       id="g5867"
       transform="translate(6.6145833,-4.9703871)">
      <path
         inkscape:connector-curvature="0"
         id="path3713"
         d="M 39.823159,55.121076 V 100.82417 H 91.406177"
         style="fill:none;stroke:#000000;stroke-width:1.66499996;stroke-linecap:butt;stroke-linejoin:miter;stroke-miterlimit:4;stroke-dasharray:none;stroke-opacity:1" />
      <path
         inkscape:connector-curvature="0"
         id="path4520"
         d="M 46.237628,91.202464 61.739261,69.286363 73.499119,86.391611 89.53529,69.553631"
         style="fill:none;stroke:#000000;stroke-width:2.96499991;stroke-linecap:butt;stroke-linejoin:miter;stroke-miterlimit:4;stroke-dasharray:none;stroke-opacity:1" />
      <rect
         y="61.351822"
         x="45.075264"
         height="16.44145"
         width="38.841076"
         id="rect4522"
         style="fill:none;stroke:#000000;stroke-width:0.70387328;stroke-miterlimit:4;stroke-dasharray:0.70387325, 1.40774651;stroke-dashoffset:0;stroke-opacity:1" />
      <path
         style="stroke-width:0.0065745"
         inkscape:connector-curvature="0"
         d="m 60.804759,82.101281 q -0.3128,0 -0.53412,0.27464 -0.22132,0.27465 -0.22132,0.66281 v 6.56215 l -0.89117,-1.47941 q -0.24198,-0.39549 -0.631503,-0.39549 -0.30689,0 -0.52527,0.2783 -0.21836,0.27832 -0.21836,0.65915 0,0.31493 0.15344,0.56394 l 2.266313,3.74979 q 0.22427,0.37353 0.60199,0.37353 h 4.23753 q 0.12983,0 0.23311,-0.0989 0.10329,-0.0989 0.1328,-0.25267 l 0.54297,-2.69517 q 0.14164,-0.70309 0.14164,-1.42082 v -1.58927 q 0,-0.30028 -0.16525,-0.51999 -0.16525,-0.21972 -0.40133,-0.21972 -0.23607,0 -0.40132,0.20507 -0.16525,0.20506 -0.16525,0.49802 h -0.18886 v -0.44676 q 0,-0.35154 -0.18886,-0.59688 -0.18886,-0.24536 -0.47215,-0.24536 -0.27149,0 -0.46625,0.24169 -0.19476,0.24169 -0.19476,0.57858 v 0.46873 h -0.18885 v -0.65915 q 0,-0.40281 -0.21837,-0.6921 -0.21837,-0.28929 -0.53707,-0.28929 -0.3128,0 -0.53412,0.27464 -0.22132,0.27465 -0.22132,0.66281 v 0.70309 h -0.18885 v -4.17459 q 0,-0.4028 -0.21837,-0.6921 -0.21837,-0.28929 -0.53707,-0.28929 z m 0,-0.93745 q 0.6315,0 1.07118,0.5676 0.4397,0.5676 0.4397,1.35124 v 1.61125 q 0.12983,-0.0147 0.18885,-0.0147 0.58429,0 1.02102,0.50535 0.27739,-0.1538 0.58428,-0.1538 0.66691,0 1.08594,0.63717 0.15935,-0.0513 0.3305,-0.0513 0.55478,0 0.93839,0.49436 0.38363,0.49436 0.38363,1.1828 v 1.58927 q 0,0.84957 -0.16525,1.64786 l -0.54298,2.69517 q -0.0944,0.46873 -0.40132,0.76535 -0.3069,0.29661 -0.69641,0.29661 h -4.23753 q -0.35411,0 -0.67576,-0.20141 -0.32165,-0.2014 -0.53412,-0.54563 l -2.266313,-3.74979 q -0.30099,-0.49802 -0.30099,-1.12787 0,-0.76901 0.43969,-1.32195 0.43969,-0.55295 1.05938,-0.55295 0.419033,0 0.767243,0.25633 v -4.00613 q 0,-0.77633 0.44264,-1.32562 0.44264,-0.54928 1.06823,-0.54928 z m 0.75544,10.31195 v -2.81235 h -0.18886 v 2.81235 z m 1.51087,0 v -2.81235 h -0.18886 v 2.81235 z m 1.51087,0 v -2.81235 h -0.18886 v 2.81235 z"
         id="path5852" />
    </g>
  </g>
</svg>
